<svg width="0" height="0" class="hidden">
  <symbol version="1.0" xmlns="http://www.w3.org/2000/svg" preserveAspectRatio="xMidYMid meet" viewBox="0 0 512.000000 512.000000" id="dog">
    <g transform="translate(0.000000,512.000000) scale(0.100000,-0.100000)" fill="#000000" stroke="none">
      <path d="M2715 3990 c-160 -41 -224 -162 -225 -419 0 -189 43 -416 134 -696
50 -157 57 -213 66 -555 8 -319 15 -364 60 -438 43 -70 128 -93 248 -68 106
22 169 55 245 126 157 147 247 360 357 845 64 284 99 394 146 464 54 80 104
191 111 248 8 71 -26 171 -73 213 -81 70 -266 141 -554 209 -334 79 -431 93
-515 71z"></path>
      <path d="M2275 3786 c-297 -98 -425 -186 -575 -396 -75 -106 -131 -162 -221
-220 -123 -79 -259 -120 -609 -180 -127 -22 -241 -42 -253 -45 -21 -6 -22 -11
-22 -113 0 -101 -2 -111 -33 -174 -40 -82 -114 -157 -199 -200 -35 -18 -63
-37 -63 -42 0 -4 17 -40 37 -80 56 -108 175 -224 285 -276 104 -50 222 -74
323 -65 170 16 590 89 710 123 57 17 100 -22 76 -67 -8 -15 -39 -26 -124 -46
-176 -41 -357 -73 -549 -97 l-178 -22 24 -30 c13 -17 43 -42 67 -56 41 -24 52
-25 184 -24 111 1 186 9 365 38 281 47 448 55 608 32 420 -62 715 -271 807
-571 29 -96 43 -117 89 -139 72 -34 -19 -71 1086 436 765 352 743 341 768 372
28 37 37 89 23 136 -9 29 -30 54 -90 104 -88 73 -180 169 -243 252 -23 31 -44
51 -46 45 -2 -6 1 -41 7 -78 15 -97 25 -276 17 -307 -8 -34 -49 -45 -76 -21
-16 14 -20 31 -20 79 0 94 -27 307 -56 434 -53 236 -152 472 -279 662 -62 93
-144 198 -156 199 -3 1 -13 -23 -22 -53 -10 -29 -43 -95 -74 -147 -31 -52 -65
-113 -75 -137 -11 -24 -48 -168 -84 -320 -95 -410 -129 -516 -221 -695 -118
-229 -271 -349 -488 -385 -86 -14 -100 -14 -161 1 -104 26 -167 85 -204 191
-30 85 -40 173 -40 381 0 253 -14 401 -45 505 -122 408 -144 509 -152 715 -5
136 4 259 23 309 8 21 8 21 -141 -28z m-176 -390 c42 -22 89 -81 97 -121 31
-167 -157 -277 -287 -168 -120 101 -44 303 114 303 26 0 61 -7 76 -14z"></path>
      <path d="M1972 3287 c-12 -13 -22 -36 -22 -51 0 -34 41 -76 75 -76 33 0 75 41
75 73 0 67 -83 102 -128 54z"></path>
      <path d="M377 2880 c-163 -56 -173 -66 -163 -174 8 -87 35 -186 50 -186 6 0
34 13 62 29 68 39 139 120 159 180 20 62 17 175 -5 178 -8 2 -55 -11 -103 -27z"></path>
    </g>
  </symbol>
  <symbol version="1.0" xmlns="http://www.w3.org/2000/svg" preserveAspectRatio="xMidYMid meet" viewBox="0 0 512.000000 512.000000" id="horse">
    <g transform="translate(0.000000,512.000000) scale(0.100000,-0.100000)" fill="#000000" stroke="none">
      <path d="M2555 4821 c-95 -49 -132 -62 -271 -93 -227 -51 -309 -97 -350 -194
-21 -49 -17 -154 7 -226 11 -34 18 -72 15 -85 -12 -47 -93 -38 -171 19 -22 16
-41 24 -43 19 -4 -13 43 -104 62 -120 9 -8 16 -26 16 -42 0 -42 -29 -54 -92
-39 -64 16 -191 8 -243 -15 l-40 -18 55 -17 c65 -20 112 -43 129 -64 12 -14
18 -13 55 10 66 41 255 129 331 155 39 12 106 30 150 40 89 18 86 12 59 109
-14 48 -19 100 -19 201 0 150 7 172 54 167 20 -2 31 -14 50 -53 17 -36 65 -91
171 -195 81 -80 161 -165 178 -190 24 -37 38 -47 78 -58 158 -42 364 -250 598
-602 130 -195 239 -379 507 -856 205 -366 353 -619 421 -723 32 -49 35 -50
102 -62 108 -18 200 3 226 52 10 17 6 26 -25 60 -57 63 -102 140 -190 323 -45
94 -105 209 -134 256 -72 116 -210 298 -284 374 -51 53 -69 65 -105 71 -29 5
-48 14 -59 31 -14 22 -14 26 2 50 19 29 16 29 150 0 39 -9 112 -16 163 -16
l93 0 -60 56 c-72 66 -119 136 -236 349 -117 215 -185 317 -259 390 -103 103
-193 132 -338 109 -87 -14 -112 -9 -121 25 -7 30 19 59 61 67 77 14 132 55
167 123 l17 34 -29 -7 c-15 -4 -73 -9 -128 -13 -90 -5 -106 -3 -153 17 -65 28
-120 89 -146 159 -25 70 -101 152 -168 181 -41 18 -73 23 -143 24 -49 1 -96 5
-102 9 -26 16 -14 58 28 99 51 50 110 170 82 167 -5 0 -57 -26 -118 -58z"></path>
      <path d="M2300 4400 c0 -6 7 -45 16 -87 22 -105 62 -189 123 -257 28 -31 51
-65 51 -75 0 -25 -26 -51 -50 -51 -21 0 -70 45 -116 105 -27 36 -30 37 -75 31
-261 -35 -586 -207 -824 -436 -49 -47 -124 -114 -165 -147 -41 -34 -92 -79
-114 -101 l-38 -40 113 -166 c63 -91 118 -166 122 -166 4 0 315 172 690 381
375 210 727 406 782 437 55 30 102 57 105 60 9 8 -93 91 -152 122 l-59 31 -28
-30 c-34 -36 -44 -38 -71 -11 -16 16 -19 28 -14 54 7 39 -4 63 -57 126 -52 62
-239 234 -239 220z m-335 -750 c43 -21 50 -30 53 -57 3 -27 -1 -35 -23 -45
-21 -9 -32 -8 -61 5 -19 9 -36 17 -38 17 -2 0 -9 -14 -16 -30 -24 -58 -90 -78
-140 -43 -22 16 -24 16 -34 -2 -34 -58 -75 -71 -101 -31 -14 21 -14 28 -2 59
21 49 85 117 132 139 57 27 163 21 230 -12z"></path>
      <path d="M2193 3367 c-436 -243 -791 -445 -790 -450 1 -4 56 -86 122 -183 131
-191 122 -184 199 -154 l30 11 -52 24 c-57 26 -68 41 -58 80 10 41 43 40 136
-4 111 -51 194 -72 290 -72 116 0 178 27 265 115 100 100 176 251 225 447 12
46 26 101 31 122 12 45 45 65 78 48 28 -15 27 -45 -4 -167 -37 -142 -99 -298
-152 -387 -43 -71 -137 -177 -176 -199 -15 -8 -12 -16 23 -61 70 -94 115 -220
146 -412 11 -71 18 -217 24 -510 9 -433 18 -540 66 -754 37 -163 77 -279 145
-416 73 -148 120 -215 153 -215 15 0 278 200 802 611 428 336 785 618 792 627
6 9 12 21 12 28 0 6 -39 52 -87 101 -154 156 -280 352 -668 1043 -262 465
-389 677 -522 875 -106 156 -213 294 -228 294 -5 0 -367 -199 -802 -442z m724
111 c6 -7 20 -42 32 -78 50 -153 197 -355 361 -498 194 -168 185 -157 150
-192 -28 -28 -41 -26 -107 24 -214 161 -417 410 -487 597 -36 96 -40 124 -21
143 19 19 59 21 72 4z m-189 -544 c21 -14 22 -20 16 -93 -11 -130 17 -234 164
-611 82 -211 112 -317 119 -425 7 -105 -13 -192 -52 -231 -29 -29 -36 -29 -66
-5 l-23 18 22 67 c45 136 23 246 -117 605 -51 129 -103 275 -117 325 -43 159
-44 306 -3 347 23 23 28 23 57 3z"></path>
      <path d="M1007 3237 l-26 -34 227 -341 c216 -325 228 -341 257 -341 17 1 40 4
53 7 21 7 7 31 -227 371 -138 200 -252 365 -254 368 -2 2 -16 -12 -30 -30z"></path>
      <path d="M860 3084 c-61 -62 -190 -159 -259 -194 -67 -33 -86 -63 -77 -117 4
-21 6 -84 6 -140 -3 -171 44 -234 163 -219 57 6 169 55 235 103 26 18 57 33
69 33 27 0 56 -40 47 -64 -3 -9 -40 -38 -80 -65 -65 -43 -72 -49 -52 -55 60
-16 73 -8 153 79 95 105 112 116 135 86 13 -19 24 -22 68 -19 l52 3 -205 308
c-113 169 -206 307 -208 307 -2 0 -23 -21 -47 -46z m-132 -237 c32 -66 -14
-166 -83 -183 -23 -6 -32 -2 -47 16 -24 30 -23 35 13 72 24 26 30 39 26 63 -7
46 8 67 46 63 24 -2 35 -10 45 -31z"></path>
    </g>
  </symbol>
  <symbol version="1.0" xmlns="http://www.w3.org/2000/svg" preserveAspectRatio="xMidYMid meet" viewBox="0 0 512.000000 512.000000" id="panda">
    <g transform="translate(0.000000,512.000000) scale(0.100000,-0.100000)" fill="#000000" stroke="none">
      <path d="M3430 4889 c-69 -4 -151 -12 -183 -19 l-59 -12 7 -46 c10 -77 101
-442 170 -682 84 -295 182 -612 311 -998 57 -173 117 -371 132 -441 25 -116
27 -144 27 -351 0 -212 -2 -231 -28 -333 -89 -353 -301 -655 -599 -852 -34
-22 -55 -42 -51 -49 3 -6 18 -27 33 -46 46 -60 109 -173 144 -258 18 -45 39
-88 46 -97 17 -21 73 -19 93 3 20 21 1437 3734 1437 3763 0 10 -9 28 -19 38
-24 24 -923 324 -1054 351 -131 27 -256 36 -407 29z"></path>
      <path d="M2995 4799 c-102 -38 -161 -68 -566 -291 -184 -102 -416 -229 -516
-282 -101 -54 -183 -101 -183 -106 0 -4 18 -46 40 -92 58 -124 83 -238 83
-379 0 -147 -18 -181 -81 -158 -21 8 -22 14 -22 124 0 136 -19 237 -65 352
-82 202 -222 344 -379 384 -39 10 -53 9 -91 -5 -76 -29 -137 -148 -156 -300
-36 -296 -34 -293 -160 -396 -276 -227 -435 -546 -501 -1005 -16 -115 -16
-517 1 -650 6 -55 23 -165 37 -245 20 -114 25 -165 21 -240 -8 -140 -74 -385
-201 -745 -25 -71 -46 -137 -46 -147 0 -16 3 -17 23 -7 12 6 45 29 73 50 41
32 59 39 95 39 108 0 228 -133 229 -252 0 -41 3 -48 19 -48 25 0 145 43 239
86 41 19 85 34 97 34 29 0 47 -22 43 -51 -3 -26 -36 -47 -144 -94 l-75 -33 30
-21 c51 -36 156 -81 210 -90 121 -19 168 4 438 215 237 184 400 283 543 329
146 47 288 143 428 289 232 243 351 521 322 754 -10 73 4 112 38 112 38 0 52
-23 62 -100 12 -98 -3 -229 -40 -340 -15 -47 -24 -86 -19 -88 25 -10 180 -127
218 -166 l44 -45 71 49 c139 94 261 214 360 353 215 304 281 686 190 1096 -14
64 -81 285 -149 491 -243 736 -379 1213 -455 1593 -6 31 -14 57 -18 57 -4 -1
-43 -14 -87 -31z m-1620 -831 c74 -65 96 -160 61 -266 -20 -60 -35 -75 -72
-70 -39 4 -52 30 -35 70 8 18 16 59 18 90 5 55 3 58 -36 101 -45 49 -49 62
-24 89 23 26 47 22 88 -14z m-540 -1832 c104 -49 194 -158 236 -283 32 -99 60
-150 123 -223 124 -144 149 -202 116 -264 -16 -32 -72 -69 -134 -90 -197 -67
-470 83 -583 320 -65 137 -67 276 -5 407 66 143 141 183 247 133z"></path>
      <path d="M720 2030 c-74 -79 -97 -245 -51 -362 44 -114 156 -230 271 -280 69
-31 166 -35 223 -10 77 34 76 42 -34 172 -87 104 -114 150 -145 244 -39 124
-104 210 -191 255 -32 17 -42 14 -73 -19z m153 -178 c66 -59 23 -162 -68 -162
-38 0 -85 50 -85 90 0 41 14 66 48 85 32 18 77 12 105 -13z"></path>
      <path d="M678 4315 c-136 -71 -178 -203 -128 -399 18 -72 90 -239 126 -294
l15 -23 66 60 c36 33 85 75 109 93 55 42 73 86 83 208 7 86 5 102 -17 168 -41
124 -117 213 -181 212 -14 -1 -47 -12 -73 -25z"></path>
      <path d="M343 565 c-23 -18 -48 -35 -55 -38 -31 -10 136 -108 210 -122 31 -6
32 -6 32 30 0 47 -32 108 -73 139 -44 33 -63 32 -114 -9z"></path>
    </g>
  </symbol>
  <symbol version="1.0" xmlns="http://www.w3.org/2000/svg" preserveAspectRatio="xMidYMid meet" viewBox="0 0 512.000000 512.000000" id="elephant">
    <g transform="translate(0.000000,512.000000) scale(0.100000,-0.100000)" fill="#000000" stroke="none">
      <path d="M1538 4280 c-42 -12 -94 -47 -124 -82 -25 -31 -25 -32 -7 -46 13 -9
34 -11 74 -7 45 5 59 3 72 -10 42 -41 7 -81 -78 -91 -44 -6 -64 -13 -77 -29
-34 -44 -118 -87 -342 -175 -256 -102 -336 -140 -451 -214 -191 -125 -313
-286 -367 -485 -29 -106 -31 -324 -4 -431 47 -185 141 -344 285 -483 175 -169
385 -279 632 -333 86 -18 301 -30 380 -20 46 6 57 11 71 37 11 19 38 40 75 57
52 24 70 27 163 27 97 0 109 -2 153 -28 62 -37 112 -105 138 -190 17 -55 19
-74 10 -93 -9 -21 -17 -25 -44 -22 -21 2 -35 10 -42 25 -9 21 -11 20 -65 -26
-30 -26 -86 -71 -125 -100 -38 -29 -73 -58 -77 -64 -12 -23 -47 -224 -58 -332
-12 -127 -3 -157 29 -104 12 19 26 50 32 69 30 91 46 110 127 147 174 80 244
89 394 53 46 -11 101 -20 124 -20 66 0 200 39 334 96 68 30 130 54 137 54 8 0
37 -24 66 -53 117 -116 297 -155 472 -103 44 14 52 14 72 0 47 -30 21 -82 -51
-98 -28 -7 -26 -9 55 -64 46 -31 136 -109 200 -173 96 -96 123 -117 162 -128
81 -23 167 5 218 70 42 53 799 1627 805 1674 13 90 -44 183 -157 255 -104 67
-183 86 -414 100 -88 6 -187 15 -219 21 -149 27 -244 88 -360 233 -139 172
-282 267 -456 302 -234 47 -543 -44 -864 -253 -39 -26 -132 -77 -206 -114 -74
-37 -207 -116 -295 -175 -88 -59 -214 -144 -280 -188 -330 -221 -633 -316
-826 -260 -196 57 -298 231 -286 489 8 172 57 299 159 410 112 122 241 191
572 305 254 86 310 114 369 180 60 67 81 130 75 225 -9 134 -77 196 -180 165z
m1730 -1069 c68 -11 130 -25 138 -32 9 -7 14 -32 14 -73 0 -97 28 -143 184
-305 107 -113 143 -156 171 -214 69 -140 79 -273 34 -450 -31 -124 -121 -335
-150 -353 -6 -4 -46 -8 -88 -9 -69 -1 -87 -6 -181 -50 -132 -62 -177 -67 -279
-31 -89 31 -103 31 -159 6 -54 -25 -104 -79 -142 -156 -35 -72 -60 -85 -95
-50 -29 29 -62 139 -76 252 -22 177 37 451 130 609 10 17 73 154 140 304 121
270 122 275 112 317 -15 59 -14 111 5 175 19 66 45 91 88 84 17 -3 86 -14 154
-24z m-1091 -451 c86 -52 82 -189 -6 -235 -36 -18 -107 -19 -141 -2 -39 19
-70 74 -70 122 0 48 31 103 70 122 38 19 110 16 147 -7z"></path>
      <path d="M3114 3094 c-22 -117 29 -178 297 -359 132 -88 233 -189 281 -280 42
-78 51 -63 19 29 -27 79 -70 135 -207 277 -132 137 -174 204 -182 290 -5 55 0
52 -112 69 -90 14 -88 14 -96 -26z"></path>
      <path d="M3096 2832 c-2 -4 -41 -90 -86 -192 -45 -102 -112 -250 -150 -330
-37 -80 -78 -179 -89 -220 -28 -102 -40 -232 -30 -327 4 -43 8 -84 8 -92 1 -8
27 12 58 44 31 32 77 67 102 79 61 27 157 27 229 -3 72 -29 101 -27 180 13 99
49 150 66 222 74 l65 7 23 85 c29 108 38 237 23 312 -31 145 -119 252 -321
389 -69 46 -148 103 -177 126 -29 23 -54 39 -57 35z"></path>
      <path d="M2064 2666 c-13 -33 0 -51 36 -51 32 0 35 2 35 30 0 27 -4 30 -33 33
-22 2 -34 -2 -38 -12z"></path>
      <path d="M1739 1884 c-40 -12 -51 -22 -85 -76 -51 -83 -180 -217 -279 -290
-44 -33 -134 -86 -200 -119 -118 -59 -119 -59 -75 -59 98 1 261 47 405 115
142 68 345 208 467 323 l37 35 -19 27 c-41 58 -147 76 -251 44z"></path>
    </g>
  </symbol>
  <symbol version="1.0" xmlns="http://www.w3.org/2000/svg" preserveAspectRatio="xMidYMid meet" viewBox="0 0 512.000000 512.000000" id="deer">
    <g transform="translate(0.000000,512.000000) scale(0.100000,-0.100000)" fill="#000000" stroke="none">
      <path d="M1707 4733 c-54 -168 -61 -224 -64 -473 -1 -129 -2 -238 -2 -242 -1
-4 -10 -12 -21 -18 -17 -9 -30 -6 -71 16 -99 55 -157 146 -189 302 l-18 87
-17 -39 c-60 -139 -26 -293 80 -366 24 -17 95 -49 157 -73 250 -94 454 -279
577 -524 42 -84 78 -199 87 -273 4 -33 12 -60 18 -60 6 0 48 10 94 22 76 19
83 23 77 42 -23 75 -13 201 22 293 5 12 -6 7 -32 -15 -44 -36 -84 -41 -107
-14 -16 18 -81 158 -129 280 -18 44 -32 102 -35 145 -8 94 10 312 46 567 17
113 32 223 36 245 l5 40 -25 -30 c-61 -71 -90 -200 -105 -480 -6 -104 -17
-212 -24 -240 -11 -46 -16 -51 -52 -64 -118 -41 -219 53 -260 241 -24 110 -33
311 -24 523 4 99 6 181 4 183 -2 2 -15 -32 -28 -75z"></path>
      <path d="M3253 4755 c3 -11 23 -86 45 -166 76 -276 96 -486 59 -596 -22 -64
-88 -129 -142 -139 -103 -19 -254 22 -454 122 -104 53 -105 53 -66 18 60 -52
185 -133 330 -214 179 -99 229 -138 250 -195 17 -42 17 -47 1 -90 -24 -61
-125 -152 -264 -238 -102 -63 -117 -77 -185 -165 -41 -54 -84 -106 -96 -116
-26 -24 -26 -29 0 -82 17 -36 70 -84 92 -84 12 0 231 211 342 329 521 554 772
997 672 1187 -13 24 -14 21 -25 -68 -26 -210 -93 -372 -203 -489 -58 -63 -78
-63 -149 0 l-54 49 18 108 c55 326 31 572 -73 730 -45 69 -107 132 -98 99z"></path>
      <path d="M3770 3140 c-165 -21 -271 -62 -475 -185 -147 -88 -227 -121 -261
-108 -8 3 -48 -27 -91 -66 -91 -84 -116 -89 -200 -41 -75 43 -118 111 -129
203 -6 52 -5 57 22 82 l29 27 -65 -7 c-163 -19 -509 -126 -593 -184 -25 -17
-79 -68 -121 -113 -228 -246 -410 -349 -1055 -595 -108 -41 -200 -78 -204 -82
-9 -9 20 -70 55 -113 41 -52 25 -136 -42 -212 l-30 -34 26 -21 c15 -12 32 -21
38 -21 6 -1 166 21 355 47 l344 47 18 -23 c23 -28 23 -32 5 -57 -12 -16 -61
-26 -338 -65 l-323 -46 46 -45 c31 -30 62 -49 95 -59 75 -22 217 -15 429 20
222 37 444 50 549 32 38 -7 101 -23 140 -35 102 -34 238 -50 411 -49 206 1
374 31 548 99 47 18 47 18 68 -3 36 -35 20 -66 -49 -96 -152 -66 -344 -100
-573 -101 l-167 -1 34 -37 c83 -93 105 -188 124 -538 17 -310 52 -480 97 -466
19 5 82 20 1361 307 424 95 772 176 772 179 0 3 -32 18 -71 34 -146 59 -328
209 -431 356 -65 93 -140 239 -182 355 -81 224 -133 326 -309 610 -116 185
-171 291 -187 356 -16 62 5 112 55 136 32 15 41 16 98 2 34 -7 103 -14 152
-14 83 0 96 3 159 34 87 42 174 130 239 239 26 44 47 83 47 87 0 12 -184 -2
-281 -21 -237 -45 -459 -154 -594 -293 -55 -57 -105 -53 -105 10 0 20 16 42
63 86 204 190 493 301 831 319 128 7 129 7 85 21 -126 37 -312 57 -419 43z
m-1753 -679 c25 -13 53 -70 53 -108 0 -38 -32 -89 -69 -108 -127 -65 -253 98
-153 198 45 45 107 52 169 18z m-1159 -463 c35 -35 -14 -102 -57 -79 -45 25
-33 91 17 91 16 0 33 -5 40 -12z m156 -24 c21 -21 20 -40 -4 -64 -24 -24 -29
-24 -58 -4 -24 17 -29 53 -10 72 17 17 54 15 72 -4z m-73 -147 c17 -31 -4 -67
-39 -67 -34 0 -52 16 -52 46 0 48 69 64 91 21z"></path>
      <path d="M1913 2364 c-3 -8 -1 -20 5 -26 16 -16 47 -5 50 20 3 18 -1 22 -23
22 -14 0 -28 -7 -32 -16z"></path>
      <path d="M504 1984 c-19 -45 -13 -97 18 -157 l21 -41 28 34 c37 44 36 70 -1
122 -16 22 -30 47 -30 54 0 30 -22 23 -36 -12z"></path>
    </g>
  </symbol>
  <symbol version="1.0" xmlns="http://www.w3.org/2000/svg" preserveAspectRatio="xMidYMid meet" viewBox="0 0 512.000000 512.000000" id="lion">
    <g transform="translate(0.000000,512.000000) scale(0.100000,-0.100000)" fill="#000000" stroke="none">
      <path d="M1825 4879 c-162 -21 -331 -87 -491 -192 -95 -62 -122 -105 -110
-173 6 -27 78 -132 136 -197 4 -5 30 3 57 16 85 43 160 60 270 61 l102 1 7 60
c15 133 54 202 128 230 38 15 52 16 95 5 155 -37 286 -203 267 -338 -11 -84
-52 -134 -169 -207 -15 -9 -14 -18 9 -95 34 -112 43 -282 20 -390 -20 -94 -83
-223 -139 -286 -37 -41 -47 -46 -70 -40 -34 8 -46 47 -23 79 99 134 133 217
143 351 l6 79 -80 -84 c-344 -362 -400 -428 -483 -573 -146 -254 -257 -639
-276 -956 -12 -186 27 -403 95 -537 l28 -56 6 129 c10 224 73 471 184 721 68
152 159 310 183 318 23 7 55 -8 64 -30 3 -9 -30 -84 -79 -178 -163 -315 -241
-567 -252 -823 -9 -203 22 -357 98 -493 39 -68 46 -78 288 -371 107 -129 230
-282 273 -340 73 -98 178 -284 178 -316 0 -26 18 -14 48 34 115 178 140 378
78 617 -15 55 -24 110 -21 122 8 32 51 41 75 17 18 -18 60 -157 60 -196 0 -58
56 50 103 198 62 194 79 442 44 624 -36 184 -116 369 -224 515 -35 47 -63 92
-63 99 0 22 29 46 56 46 19 0 38 -18 84 -81 157 -211 237 -430 263 -714 l12
-140 56 85 c145 218 203 418 202 695 0 140 -2 159 -37 295 -47 182 -59 374
-32 528 20 115 28 132 65 132 51 0 56 -17 36 -137 -13 -81 -16 -139 -12 -238
5 -121 11 -153 95 -485 50 -195 93 -382 97 -415 4 -33 10 -65 14 -71 7 -14
108 118 181 235 215 347 314 695 314 1106 0 377 -93 762 -237 977 -189 283
-391 419 -701 473 l-39 6 65 -78 c76 -91 81 -104 62 -132 -31 -44 -56 -28
-166 102 -127 149 -239 242 -373 308 -173 85 -391 122 -570 98z m736 -566
c166 -150 266 -435 244 -697 -8 -105 -27 -136 -71 -120 l-29 10 3 119 c5 146
-16 277 -59 381 -33 80 -107 190 -163 243 -39 38 -45 61 -20 85 24 25 51 19
95 -21z"></path>
      <path d="M1947 4588 c-29 -23 -49 -89 -54 -186 -6 -101 -19 -128 -57 -118 -52
15 -167 18 -233 7 -164 -28 -266 -110 -353 -284 -119 -238 -288 -397 -585
-548 -76 -39 -131 -73 -133 -83 -5 -25 37 -105 65 -123 23 -15 25 -15 61 19
53 50 83 68 112 68 53 0 69 -56 24 -87 -91 -64 -124 -110 -124 -175 0 -40 39
-127 81 -179 26 -34 36 -39 70 -39 51 0 151 33 212 71 56 34 77 36 103 8 17
-18 17 -23 4 -46 -27 -47 -180 -118 -282 -130 -29 -4 -48 -11 -48 -18 0 -39
45 -152 71 -178 27 -27 34 -29 76 -23 55 7 151 57 203 105 33 31 43 50 66 131
40 144 117 334 176 437 85 147 161 241 407 503 141 150 231 253 231 265 0 11
-13 58 -29 104 -16 46 -27 89 -24 97 3 7 38 29 78 49 113 54 147 119 107 206
-26 58 -75 107 -137 135 -58 27 -65 28 -88 12z m117 -129 c48 -57 26 -169 -33
-169 -40 0 -52 19 -47 76 5 53 31 124 45 124 5 0 21 -14 35 -31z m-571 -570
c37 -40 37 -88 -2 -131 -24 -27 -36 -33 -71 -33 -35 0 -47 6 -71 33 -37 42
-39 89 -4 131 42 49 102 50 148 0z m-542 -659 c22 -12 26 -59 7 -78 -20 -20
-56 -14 -74 13 -15 23 -15 27 0 50 18 27 36 31 67 15z m-125 -105 c15 -23 15
-27 0 -50 -27 -42 -86 -26 -86 23 0 55 56 72 86 27z m136 -89 c22 -32 0 -76
-36 -76 -33 0 -48 15 -48 46 0 47 59 68 84 30z"></path>
      <path d="M3885 3225 c20 -404 -79 -821 -279 -1173 -112 -199 -326 -472 -369
-472 -45 0 -49 11 -53 136 -1 66 -9 146 -17 179 l-13 60 -13 -65 c-43 -215
-140 -411 -299 -603 -57 -69 -81 -116 -82 -163 0 -7 17 -15 38 -19 103 -18
218 -104 275 -203 16 -29 41 -60 54 -69 22 -15 26 -15 49 3 33 25 1414 1973
1414 1994 0 32 -27 50 -114 75 -233 67 -437 213 -558 400 l-39 60 6 -140z"></path>
    </g>
  </symbol>
  <symbol version="1.0" xmlns="http://www.w3.org/2000/svg" preserveAspectRatio="xMidYMid meet" viewBox="0 0 512.000000 512.000000" id="wolf">
    <g transform="translate(0.000000,512.000000) scale(0.100000,-0.100000)" fill="#000000" stroke="none">
      <path d="M2860 4850 c-8 -15 -7 -27 3 -47 27 -52 98 -267 127 -383 48 -189 63
-324 57 -495 -6 -164 -13 -195 -63 -300 -38 -79 -41 -107 -16 -152 18 -33 87
-95 133 -118 l27 -14 36 107 c90 271 104 395 66 587 -64 331 -117 488 -225
670 -50 86 -111 165 -125 165 -5 0 -14 -9 -20 -20z"></path>
      <path d="M2765 4657 c-28 -95 -45 -191 -51 -287 -7 -107 -29 -170 -68 -196
-23 -14 -160 -59 -693 -223 -59 -18 -115 -43 -133 -58 -34 -28 -66 -87 -104
-185 -62 -166 -97 -203 -240 -259 -93 -36 -363 -106 -544 -140 -71 -13 -121
-27 -119 -34 1 -5 27 -22 57 -37 76 -39 90 -55 90 -98 0 -31 -7 -44 -39 -73
-22 -19 -67 -45 -100 -57 -34 -13 -61 -25 -61 -27 0 -2 15 -27 33 -56 42 -64
100 -122 148 -147 56 -29 203 -43 374 -37 241 10 408 45 533 113 34 19 69 34
77 34 20 0 45 -28 45 -50 0 -60 -200 -144 -435 -182 -49 -8 -168 -13 -308 -13
l-229 1 6 -49 c16 -114 59 -168 151 -187 69 -14 114 -8 299 42 187 50 295 68
417 68 164 0 276 -34 352 -108 128 -123 141 -366 37 -681 -84 -254 -114 -440
-108 -661 4 -132 9 -167 31 -236 39 -117 141 -270 123 -183 -41 199 -22 397
58 579 29 67 431 735 541 900 87 130 228 262 370 347 80 48 141 107 173 168
24 45 27 61 27 150 0 95 -2 103 -35 165 -52 99 -157 199 -255 244 -130 60
-163 79 -220 124 -119 95 -140 194 -72 339 50 107 61 182 54 368 -8 196 -40
349 -120 583 -17 50 -35 92 -39 92 -4 0 -14 -24 -23 -53z m-724 -992 c93 -49
88 -191 -8 -232 -70 -29 -139 2 -170 76 -44 104 75 209 178 156z"></path>
      <path d="M1960 3565 c-11 -13 -11 -19 3 -32 21 -21 49 -9 45 19 -4 28 -30 35
-48 13z"></path>
      <path d="M2235 4638 c-33 -72 -55 -174 -55 -261 0 -68 25 -215 39 -230 8 -8
299 78 315 93 23 22 -134 295 -238 415 l-34 40 -27 -57z"></path>
      <path d="M3351 3851 c-1 -117 -37 -279 -107 -476 -24 -65 -24 -71 -8 -80 142
-83 234 -177 295 -300 39 -78 43 -95 47 -174 9 -184 -67 -319 -236 -419 -217
-129 -392 -333 -456 -532 -33 -100 -38 -127 -45 -245 -6 -97 -7 -100 -33 -109
-44 -15 -66 13 -70 88 l-3 61 -119 -194 c-195 -319 -228 -409 -228 -616 0
-214 70 -399 204 -536 l72 -74 3 35 c17 204 47 334 112 480 57 131 85 170 121
170 20 0 33 -7 41 -21 9 -18 4 -36 -31 -110 l-42 -89 4 -133 c5 -128 11 -167
28 -167 14 0 187 297 269 460 124 249 193 443 225 628 15 90 27 112 60 112 53
0 58 -50 22 -210 -23 -100 -74 -259 -110 -344 -9 -22 -15 -41 -12 -43 5 -5
121 63 186 110 308 224 541 588 640 1000 22 91 34 109 68 105 47 -6 53 -33 27
-133 -12 -49 -21 -91 -20 -93 7 -8 86 168 101 223 22 83 29 283 14 386 -13 89
-52 250 -71 291 -11 25 -13 25 -132 25 -142 0 -165 5 -173 40 -13 51 2 58 132
59 178 1 263 33 315 118 l18 30 -75 18 c-200 47 -393 174 -656 431 -110 108
-228 205 -345 285 l-31 22 -1 -79z"></path>
      <path d="M678 3263 c-23 -6 -23 -3 8 -95 28 -86 38 -92 105 -64 52 22 52 27 4
57 -24 15 -56 46 -71 68 -15 23 -27 40 -28 40 0 -1 -9 -3 -18 -6z"></path>
    </g>
  </symbol>
  <symbol version="1.0" xmlns="http://www.w3.org/2000/svg" preserveAspectRatio="xMidYMid meet" viewBox="0 0 512.000000 512.000000" id="cat">
    <g transform="translate(0.000000,512.000000) scale(0.100000,-0.100000)" fill="#000000" stroke="none">
      <path d="M2533 4888 c-46 -51 -74 -144 -94 -313 -15 -129 -14 -534 1 -745 15
-203 20 -194 -132 -203 -294 -15 -583 -134 -857 -351 -104 -82 -344 -330 -375
-387 -34 -61 -52 -136 -71 -289 -43 -350 -145 -570 -380 -819 -52 -55 -95
-104 -95 -109 0 -4 31 -4 69 1 135 19 218 -18 242 -106 9 -36 8 -48 -15 -106
-15 -36 -43 -97 -64 -136 -42 -80 -62 -89 -119 -55 -19 11 -37 20 -38 18 -10
-10 20 -130 42 -171 51 -92 139 -146 319 -194 89 -24 117 -26 279 -27 164 0
190 2 295 28 63 15 124 30 136 33 51 12 74 -66 27 -91 -87 -44 -338 -81 -509
-74 -64 2 -114 0 -114 -5 0 -20 119 -125 176 -154 144 -76 306 -84 594 -29
429 83 871 118 928 73 16 -12 16 -62 0 -75 -8 -5 -80 -10 -169 -10 -85 0 -179
-3 -208 -7 l-53 -7 34 -28 c52 -43 141 -156 183 -232 41 -76 75 -108 114 -108
30 0 1874 1077 1904 1112 32 38 22 80 -51 202 -37 62 -90 163 -117 224 -27 61
-51 110 -52 108 -2 -2 -12 -59 -23 -127 -12 -68 -32 -173 -46 -232 -22 -89
-30 -110 -49 -119 -16 -7 -29 -7 -44 1 -26 14 -27 49 -6 132 59 225 92 573 75
792 -29 392 -150 694 -368 915 l-76 77 -12 -105 c-23 -195 -79 -394 -114 -405
-23 -7 -55 8 -64 31 -3 9 5 51 18 93 51 161 61 234 61 436 0 144 -4 210 -18
275 -64 306 -197 549 -447 814 -97 103 -363 322 -335 276 5 -8 32 -51 60 -95
29 -44 86 -139 127 -210 226 -389 282 -554 282 -830 0 -148 -13 -240 -56 -373
-32 -102 -54 -125 -97 -103 -27 15 -27 44 -1 122 71 210 76 440 15 656 -68
238 -402 804 -566 959 -85 79 -112 89 -146 52z m-771 -2280 c54 -16 132 -88
153 -140 67 -167 -53 -350 -229 -351 -81 0 -136 24 -189 83 -48 53 -67 103
-67 176 1 165 167 282 332 232z m-697 -1524 c22 -23 15 -56 -17 -73 -24 -14
-28 -14 -47 3 -23 21 -27 56 -9 74 17 17 54 15 73 -4z"></path>
      <path d="M1610 2502 c-137 -68 -86 -286 68 -286 156 0 213 193 82 281 -40 28
-101 30 -150 5z"></path>
      <path d="M1543 4639 c82 -89 193 -251 240 -351 44 -94 82 -212 97 -311 13 -79
9 -284 -6 -321 -6 -16 -4 -18 12 -13 120 38 259 69 349 79 61 6 111 12 111 12
1 1 -2 38 -6 83 -6 75 -12 90 -69 195 -179 323 -422 565 -660 657 -143 55
-145 54 -68 -30z"></path>
      <path d="M1476 4475 c70 -267 129 -605 149 -867 l7 -86 58 31 c56 30 60 35 77
92 14 47 18 92 17 205 0 128 -4 156 -27 233 -47 152 -155 341 -271 472 l-44
50 34 -130z"></path>
      <path d="M571 1569 c-24 -5 -46 -11 -49 -14 -18 -17 111 -175 142 -175 16 0
87 146 80 165 -14 35 -76 43 -173 24z"></path>
    </g>
  </symbol>
</svg>
<svg class="icon">
  <use xlink:href="#dog"></use>
</svg><svg class="icon">
  <use xlink:href="#horse"></use>
</svg><svg class="icon">
  <use xlink:href="#panda"></use>
</svg><svg class="icon">
  <use xlink:href="#elephant"></use>
</svg><svg class="icon">
  <use xlink:href="#deer"></use>
</svg><svg class="icon">
  <use xlink:href="#lion"></use>
</svg><svg class="icon">
  <use xlink:href="#wolf"></use>
</svg><svg class="icon">
  <use xlink:href="#cat"></use>
</svg>